# xmcd CD database file
#
# Track frame offsets:
#	150
#	19501
#	39315
#	52787
#	81084
#	95089
#	110646
#	183914
#	206020
#	251932
#
# Disc length: 3576 seconds
#
# Revision: 1
# Processed by: cddbd v1.5.1PL0 Copyright (c) Steve Scherf et al.
# Submitted via: CDex 1.51
#
DISCID=7e0df60a
DTITLE=ella fitzgerald - the complete songbook
DYEAR=1900
DGENRE=Jazz
TTITLE0=Ella Fitzgerald - I'm Just A Lucky So And So
TTITLE1=Ella Fitzgerald - All Too Soon
TTITLE2=Ella Fitzgerald - Everything But You
TTITLE3=Ella Fitzgerald - I Got It Bad (And That Ain't Good)
TTITLE4=Ella Fitzgerald - Bli-Blip
TTITLE5=Ella Fitzgerald - Chelsea Bridge
TTITLE6=Ella Fitzgerald - Portrait Of Ella Fitzgerald
TTITLE7=Ella Fitzgerald - The E And D Blues (E For Ella, D For Duke)
TTITLE8=Ella Fitzgerald - Rehearsal
TTITLE9=Ella Fitzgerald - Chelsea Bridge (Alternative Take)
EXTD=
EXTT0=
EXTT1=
EXTT2=
EXTT3=
EXTT4=
EXTT5=
EXTT6=
EXTT7=
EXTT8=
EXTT9=
PLAYORDER=
